<?xml version="1.0" encoding="UTF-8" standalone="no"?>
<!-- Created with Inkscape (http://www.inkscape.org/) -->

<svg
   width="250.23134mm"
   height="138.10278mm"
   viewBox="0 0 250.23134 138.10278"
   version="1.1"
   id="svg1"
   xmlns:inkscape="http://www.inkscape.org/namespaces/inkscape"
   xmlns:sodipodi="http://sodipodi.sourceforge.net/DTD/sodipodi-0.dtd"
   xmlns="http://www.w3.org/2000/svg"
   xmlns:svg="http://www.w3.org/2000/svg">
  <sodipodi:namedview
     id="namedview1"
     pagecolor="#ffffff"
     bordercolor="#000000"
     borderopacity="0.25"
     inkscape:showpageshadow="2"
     inkscape:pageopacity="0.0"
     inkscape:pagecheckerboard="0"
     inkscape:deskcolor="#d1d1d1"
     inkscape:document-units="mm" />
  <defs
     id="defs1" />
  <g
     inkscape:label="Layer 1"
     inkscape:groupmode="layer"
     id="layer1"
     transform="translate(49.157621,25.043956)">
    <rect
       style="fill:#006fba;fill-opacity:1;stroke:#000000;stroke-width:0.186116"
       id="rect1"
       width="250.04523"
       height="137.91666"
       x="-49.064564"
       y="-24.950897"
       inkscape:export-filename="illustrator.svg"
       inkscape:export-xdpi="96"
       inkscape:export-ydpi="96" />
    <path
       style="fill:#2e87c3;fill-opacity:1;stroke:none;stroke-width:0.170301"
       d="m 118.93639,101.18187 c 0,0 -35.773365,-11.826556 -22.103867,-30.950356 C 110.50202,51.10772 139.29522,46.5784 156.16397,46.5784 c 16.86874,0 47.69782,9.05864 49.73371,19.375424 2.03588,10.31679 -10.00391,27.43303 -23.84892,33.71828 -16.47823,7.480646 -64.56685,4.341136 -63.11237,1.509766 z"
       id="path1"
       sodipodi:nodetypes="cssssc" />
    <path
       style="fill:#2e87c3;fill-opacity:1;stroke:none;stroke-width:0.170301"
       d="m 78.746945,35.271183 c 0,0 -35.773366,-11.82656 -22.103867,-30.9503603 13.669497,-19.1237897 42.462697,-23.6531097 59.331442,-23.6531097 16.86874,0 47.69782,9.05864 49.73371,19.37541974 2.03588,10.31679026 -10.00391,27.43303026 -23.84892,33.71828026 -16.47823,7.48065 -64.566845,4.34114 -63.112365,1.50977 z"
       id="path2"
       sodipodi:nodetypes="cssssc" />
    <path
       style="fill:#2e87c3;fill-opacity:1;stroke:none;stroke-width:0.170301"
       d="m -32.979713,88.32125 c 0,0 -35.773365,-11.82656 -22.103867,-30.95036 13.669497,-19.12379 42.462697,-23.65311 59.3314474,-23.65311 16.8687396,0 47.6978176,9.05864 49.7337076,19.37542 2.03588,10.31679 -10.00391,27.43303 -23.84892,33.71828 -16.478228,7.48065 -64.566848,4.34114 -63.112368,1.50977 z"
       id="path3"
       sodipodi:nodetypes="cssssc" />
  </g>
</svg>
